<svg width="165" height="165" viewBox="0 0 165 165" fill="none" xmlns="http://www.w3.org/2000/svg">
<g clip-path="url(#clip0_2048_420)">
<rect width="165" height="165" rx="10" fill="#42A079"/>
<path d="M8.11443 320.655C-31.2032 298.31 -25.3841 243.072 -17.5599 218.246C-48.3658 174.249 -79.6882 235.95 -87.431 195.152C-95.1738 154.354 -65.5363 149.725 -30.7762 103.89C3.98399 58.0543 61.3717 55.4931 101.924 88.3667C142.477 121.24 104.182 162.027 67.0036 176.234C29.8257 190.442 93.034 214.977 92.4475 279.879C91.8611 344.782 57.2615 348.585 8.11443 320.655Z" fill="#287958" fill-opacity="0.5"/>
<path d="M-21 11.1421C-3.45793 8.21745 35.0097 7.95405 48.5436 30.2976C65.4611 58.227 73.4092 67.0631 91.2946 60.6514C109.18 54.2396 131.435 45.1993 135.085 31.6742C138.735 18.1491 128.291 3.83362 140.253 -5.76625C152.215 -15.3661 157.206 -32.5589 172.445 -30.0545" stroke="white" stroke-opacity="0.5" stroke-linecap="round" stroke-dasharray="6 6"/>
<path d="M135.5 -9C158.972 -9 178 10.0279 178 33.5C178 56.9721 158.972 76 135.5 76C112.028 76 93 56.9721 93 33.5C93 10.0279 112.028 -9 135.5 -9ZM114.59 26.2646C113.001 24.6759 110.416 25.3679 110.125 27.5957C109.34 33.5988 109.45 44.0384 117.391 51.9785C125.425 60.0131 135.507 59.518 141.146 58.375C143.246 57.9491 143.803 55.4777 142.287 53.9619L114.59 26.2646ZM152.87 15.0381C144.835 7.00355 134.754 7.49862 129.115 8.6416C127.014 9.0675 126.457 11.5389 127.973 13.0547L155.671 40.752C157.26 42.3407 159.844 41.6488 160.136 39.4209C160.921 33.4178 160.81 22.9782 152.87 15.0381Z" fill="#236B4D"/>
</g>
<defs>
<clipPath id="clip0_2048_420">
<rect width="165" height="165" rx="10" fill="white"/>
</clipPath>
</defs>
</svg>
