<svg width="165" height="165" viewBox="0 0 165 165" fill="none" xmlns="http://www.w3.org/2000/svg">
<g clip-path="url(#clip0_2048_404)">
<rect width="165" height="165" rx="10" fill="#42A079"/>
<path d="M8.11443 320.655C-31.2032 298.31 -25.3841 243.072 -17.5599 218.246C-48.3658 174.249 -79.6882 235.95 -87.431 195.152C-95.1738 154.354 -65.5363 149.725 -30.7762 103.89C3.98399 58.0543 61.3717 55.4931 101.924 88.3667C142.477 121.24 104.182 162.027 67.0036 176.234C29.8257 190.442 93.034 214.977 92.4475 279.879C91.8611 344.782 57.2615 348.585 8.11443 320.655Z" fill="#287958" fill-opacity="0.5"/>
<path d="M-21 11.1421C-3.45793 8.21745 35.0097 7.95405 48.5436 30.2976C65.4611 58.227 73.4092 67.0631 91.2946 60.6514C109.18 54.2396 131.435 45.1993 135.085 31.6742C138.735 18.1491 128.291 3.83362 140.253 -5.76625C152.215 -15.3661 157.206 -32.5589 172.445 -30.0545" stroke="white" stroke-opacity="0.5" stroke-linecap="round" stroke-dasharray="6 6"/>
<path d="M88.04 59.3156H183.293C184.695 59.3159 185.832 60.4521 185.832 61.8517C185.832 68.2816 180.61 73.5 174.173 73.5002H97.1602C90.7226 73.5002 85.5 68.2817 85.5 61.8517C85.5003 60.4519 86.6375 59.3156 88.04 59.3156ZM102.007 0.600769H166.066C168.751 0.60086 170.557 1.43093 171.706 2.85175C172.872 4.2927 173.432 6.42489 173.432 9.16132V58.3156H165.22V10.1613C165.22 9.33293 164.548 8.66139 163.72 8.66132H103.007C102.178 8.66132 101.507 9.33289 101.507 10.1613V58.3156H93.6494V6.68085C93.6494 5.03155 94.2221 3.53578 95.5098 2.44354C96.8072 1.34305 98.8911 0.600771 102.007 0.600769Z" fill="#236B4D" stroke="#236B4D"/>
<path d="M147.244 14.4056C155.136 14.4056 161.533 8.04682 161.533 0.202817C161.533 -7.64118 155.136 -14 147.244 -14C139.352 -14 132.955 -7.64118 132.955 0.202817C132.955 2.88823 134.009 5.75388 135.312 7.89559L133.33 13.3452C133.022 14.193 133.905 14.9834 134.714 14.5831L139.564 12.1816C141.782 13.5896 144.417 14.4056 147.244 14.4056Z" fill="#42A079" stroke="#236B4D" stroke-width="3"/>
<path d="M139.209 -2.7337H154.799M139.209 3.64387H154.799" stroke="#236B4D" stroke-width="3" stroke-linecap="round"/>
<path d="M124.329 19.3163C132.306 19.3165 138.772 25.7836 138.772 33.7606C138.772 41.7375 132.305 48.2038 124.329 48.204C116.352 48.204 109.884 41.7376 109.884 33.7606C109.884 25.7834 116.351 19.3163 124.329 19.3163Z" stroke="#236B4D" stroke-width="3"/>
<path d="M124.328 24.9852C127.608 24.9852 130.268 27.6448 130.268 30.9257C130.268 34.2065 127.608 36.8661 124.328 36.8661C121.047 36.8661 118.387 34.2065 118.387 30.9257C118.387 27.6449 121.047 24.9853 124.328 24.9852Z" stroke="#236B4D" stroke-width="3"/>
<path d="M113.699 44.3895C115.752 39.8428 119.341 37.45 124.328 37.3033C129.547 37.1498 133.517 39.6309 135.666 44.3895" stroke="#236B4D" stroke-width="3"/>
</g>
<defs>
<clipPath id="clip0_2048_404">
<rect width="165" height="165" rx="10" fill="white"/>
</clipPath>
</defs>
</svg>
