<svg width="165" height="165" viewBox="0 0 165 165" fill="none" xmlns="http://www.w3.org/2000/svg">
<g clip-path="url(#clip0_2048_530)">
<rect width="165" height="165" rx="10" fill="#9060A0"/>
<path d="M-30.0347 68.4345L-6.28162 78.4029C0.719063 81.3409 8.6127 81.3101 15.5902 78.3175L59.4551 59.5044C76.6805 52.1166 81.925 30.2201 69.9155 15.8303L52.343 -5.22519C49.1341 -9.07018 44.9526 -11.9841 40.2344 -13.6633L-3.86351 -29.3578C-19.7376 -35.0074 -36.9698 -25.459 -40.5958 -9.00431L-49.4655 31.2459L-54.5686 45.691C-58.5078 56.8416 -49.5707 68.3224 -37.7945 67.2394C-35.1491 66.9961 -32.4844 67.4065 -30.0347 68.4345Z" fill="#784987"/>
<path d="M198.834 169.644L188.163 121.406C187.118 116.682 184.215 112.577 180.109 110.018L154.122 93.8216C147.578 89.7432 139.164 90.2857 133.198 95.1704L102.702 120.139C100.388 122.034 98.5828 124.475 97.449 127.243L88.2539 149.69C85.1572 157.25 87.54 165.948 94.0574 170.873L111.681 184.193C114.498 186.322 117.879 187.576 121.403 187.798L180.127 191.496C192.079 192.249 201.42 181.338 198.834 169.644Z" fill="#80548F"/>
<path d="M40.4985 -8.5C76.4985 41.5001 32.4981 22.5001 26.9981 41.5001C20.1857 65.0339 61.9999 41.5001 56.9981 69.5C53.6281 88.3651 115 63.5 91.9981 109C75.849 140.945 115.703 120.704 125.998 131C135.498 140.5 121.831 171.333 121.998 184.5" stroke="#DDB8E9" stroke-dasharray="3 3"/>
<path d="M88.04 59.3157H183.293C184.695 59.3159 185.832 60.4521 185.832 61.8518C185.832 68.2817 180.61 73.5001 174.173 73.5002H97.1602C90.7226 73.5002 85.5 68.2818 85.5 61.8518C85.5003 60.452 86.6375 59.3157 88.04 59.3157ZM102.007 0.60083H166.066C168.751 0.600921 170.557 1.43099 171.706 2.85181C172.872 4.29276 173.432 6.42495 173.432 9.16138V58.3157H165.22V10.1614C165.22 9.333 164.548 8.66145 163.72 8.66138H103.007C102.178 8.66138 101.507 9.33295 101.507 10.1614V58.3157H93.6494V6.68091C93.6494 5.03161 94.2221 3.53584 95.5098 2.4436C96.8072 1.34312 98.8911 0.600832 102.007 0.60083Z" fill="#541E66" stroke="#541E66"/>
<path d="M147.244 14.4056C155.136 14.4056 161.533 8.04682 161.533 0.202817C161.533 -7.64118 155.136 -14 147.244 -14C139.352 -14 132.955 -7.64118 132.955 0.202817C132.955 2.88823 134.009 5.75388 135.312 7.89559L133.33 13.3452C133.022 14.193 133.905 14.9834 134.714 14.5831L139.564 12.1816C141.782 13.5896 144.417 14.4056 147.244 14.4056Z" fill="#9060A0" stroke="#541E66" stroke-width="3"/>
<path d="M139.209 -2.73376H154.799M139.209 3.64381H154.799" stroke="#541E66" stroke-width="3" stroke-linecap="round"/>
<path d="M124.329 19.3163C132.306 19.3165 138.772 25.7836 138.772 33.7606C138.772 41.7375 132.305 48.2038 124.329 48.204C116.352 48.204 109.884 41.7376 109.884 33.7606C109.884 25.7834 116.351 19.3163 124.329 19.3163Z" stroke="#541E66" stroke-width="3"/>
<path d="M124.328 24.9852C127.608 24.9852 130.268 27.6448 130.268 30.9257C130.268 34.2065 127.608 36.8661 124.328 36.8661C121.047 36.8661 118.387 34.2065 118.387 30.9257C118.387 27.6449 121.047 24.9853 124.328 24.9852Z" stroke="#541E66" stroke-width="3"/>
<path d="M113.699 44.3895C115.752 39.8428 119.341 37.45 124.328 37.3033C129.547 37.1498 133.517 39.6309 135.666 44.3895" stroke="#541E66" stroke-width="3"/>
</g>
<defs>
<clipPath id="clip0_2048_530">
<rect width="165" height="165" rx="10" fill="white"/>
</clipPath>
</defs>
</svg>
