<svg width="165" height="165" viewBox="0 0 165 165" fill="none" xmlns="http://www.w3.org/2000/svg">
<g clip-path="url(#clip0_2048_467)">
<rect width="165" height="165" rx="10" fill="#498496"/>
<path d="M-18.5 118C-10.5 106.5 5 118 18 118C31 118 21 72.5 27.5 54.5C34 36.5 60 68.5 71.5 51.5C83 34.5 89.4749 10.9034 103 16.5C132 28.5 138.5 6 142.5 -5.5" stroke="#96CCDC" stroke-dasharray="3 3"/>
<path d="M49 134C23.8034 151.134 22.9626 125.563 2.50044 141C-7.45845 143.665 4.2077 215.717 14.9166 231.785C28.3027 251.87 186.454 186.266 168.474 137.698C150.494 89.1305 84.6166 76.2093 58.0004 81.5C31.3841 86.7907 61.5 125.5 49 134Z" fill="#357285"/>
<path d="M88.04 59.3157H183.293C184.695 59.3159 185.832 60.4521 185.832 61.8518C185.832 68.2817 180.61 73.5001 174.173 73.5002H97.1602C90.7226 73.5002 85.5 68.2818 85.5 61.8518C85.5003 60.452 86.6375 59.3157 88.04 59.3157ZM102.007 0.60083H166.066C168.751 0.600921 170.557 1.43099 171.706 2.85181C172.872 4.29276 173.432 6.42495 173.432 9.16138V58.3157H165.22V10.1614C165.22 9.333 164.548 8.66145 163.72 8.66138H103.007C102.178 8.66138 101.507 9.33295 101.507 10.1614V58.3157H93.6494V6.68091C93.6494 5.03161 94.2221 3.53584 95.5098 2.4436C96.8072 1.34312 98.8911 0.600832 102.007 0.60083Z" fill="#195E73" stroke="#195E73"/>
<path d="M147.244 14.4056C155.136 14.4056 161.533 8.04682 161.533 0.202817C161.533 -7.64118 155.136 -14 147.244 -14C139.352 -14 132.955 -7.64118 132.955 0.202817C132.955 2.88823 134.009 5.75388 135.312 7.89559L133.33 13.3452C133.022 14.193 133.905 14.9834 134.714 14.5831L139.564 12.1816C141.782 13.5896 144.417 14.4056 147.244 14.4056Z" fill="#498496" stroke="#195E73" stroke-width="3"/>
<path d="M139.209 -2.73376H154.799M139.209 3.64381H154.799" stroke="#195E73" stroke-width="3" stroke-linecap="round"/>
<path d="M124.329 19.3163C132.306 19.3165 138.772 25.7836 138.772 33.7606C138.772 41.7375 132.305 48.2038 124.329 48.204C116.352 48.204 109.884 41.7376 109.884 33.7606C109.884 25.7834 116.351 19.3163 124.329 19.3163Z" stroke="#195E73" stroke-width="3"/>
<path d="M124.328 24.9852C127.608 24.9852 130.268 27.6448 130.268 30.9257C130.268 34.2065 127.608 36.8661 124.328 36.8661C121.047 36.8661 118.387 34.2065 118.387 30.9257C118.387 27.6449 121.047 24.9853 124.328 24.9852Z" stroke="#195E73" stroke-width="3"/>
<path d="M113.699 44.3895C115.752 39.8428 119.341 37.45 124.328 37.3033C129.547 37.1498 133.517 39.6309 135.666 44.3895" stroke="#195E73" stroke-width="3"/>
</g>
<defs>
<clipPath id="clip0_2048_467">
<rect width="165" height="165" rx="10" fill="white"/>
</clipPath>
</defs>
</svg>
