<svg width="165" height="165" viewBox="0 0 165 165" fill="none" xmlns="http://www.w3.org/2000/svg">
<g clip-path="url(#clip0_2048_512)">
<rect width="165" height="165" rx="10" fill="#498496"/>
<path d="M-18.5 118C-10.5 106.5 5 118 18 118C31 118 21 72.5 27.5 54.5C34 36.5 60 68.5 71.5 51.5C83 34.5 89.4749 10.9034 103 16.5C132 28.5 138.5 6 142.5 -5.5" stroke="#96CCDC" stroke-dasharray="3 3"/>
<path d="M48.9996 134C23.8029 151.134 22.9621 125.563 2.49995 141C-7.45894 143.665 4.20721 215.717 14.9161 231.785C28.3022 251.87 186.453 186.266 168.473 137.698C150.494 89.1305 84.6162 76.2093 57.9999 81.5C31.3836 86.7907 61.4995 125.5 48.9996 134Z" fill="#357285"/>
<path d="M129.903 -27C145.097 -26.9999 154.415 -20.6013 159.692 -12.3799C164.191 -5.37176 165.642 2.77485 165.616 8.97266C166.429 9.28274 167.248 9.72515 168.016 10.3369C170.227 12.0993 171.693 14.9931 171.693 19.1582V67.2373C171.693 68.8984 171.243 71.3561 169.803 73.4775C168.272 75.7323 165.693 77.4746 161.896 77.4746H98.4707C94.9249 77.4745 92.6378 75.5348 91.3643 73.3184C90.1618 71.2257 89.7969 68.829 89.7969 67.2373V57.29H90.0303C86.9073 53.9444 85 49.4811 85 44.5791C85.0001 39.4024 87.1267 34.7147 90.5664 31.3164H89.7969V17.5C89.797 16.0245 90.5089 14.8023 91.1992 13.9434C91.9154 13.0524 92.8297 12.275 93.7207 11.6387C94.2348 11.2715 94.7786 10.9251 95.3252 10.6094C94.8352 4.27198 95.8427 -4.69704 100.505 -12.332C105.55 -20.5945 114.706 -26.9999 129.903 -27ZM162.086 13.3613L162.003 13.3682L161.919 13.3691L107.471 13.8516C107.329 13.8854 107.182 13.9094 107.031 13.918C106.797 13.9312 106.57 13.9094 106.352 13.8613L99.9775 13.918C99.2126 14.1814 97.8518 14.8325 96.626 15.708C95.9505 16.1905 95.4271 16.6643 95.0967 17.0752C94.8697 17.3575 94.81 17.5136 94.7969 17.5508V28.1621C97.5456 26.6516 100.712 25.79 104.084 25.79L104.576 25.7959C114.888 26.053 123.168 34.3642 123.168 44.5791L123.161 45.0645C122.9 55.2174 114.459 63.3691 104.084 63.3691L103.591 63.3633C100.404 63.2837 97.4112 62.4338 94.7969 60.9971V67.2373C94.7969 68.2245 95.0495 69.6962 95.6992 70.8271C96.2778 71.8341 97.0777 72.4745 98.4707 72.4746H161.896C163.937 72.4746 165.008 71.6368 165.666 70.668C166.414 69.5658 166.693 68.1551 166.693 67.2373V19.1582C166.693 16.2501 165.728 14.907 164.899 14.2471C163.965 13.5027 162.801 13.3073 162.086 13.3613ZM158.528 20.5264C159.909 20.5264 161.028 21.6458 161.028 23.0264V62.2637C161.028 64.1028 159.895 65.2468 158.86 65.7969C157.929 66.292 156.932 66.4209 156.283 66.4209H126.535C125.155 66.4207 124.035 65.3015 124.035 63.9209C124.035 62.5406 125.155 61.4211 126.535 61.4209H156.028V23.0264C156.029 21.6461 157.148 20.5268 158.528 20.5264ZM104.084 30.79C96.2323 30.79 90.0002 37.0366 90 44.5791C90.0001 52.1218 96.2321 58.3691 104.084 58.3691C111.936 58.3691 118.168 52.1217 118.168 44.5791C118.168 37.0366 111.936 30.7901 104.084 30.79ZM110.812 39.4229C111.828 38.4887 113.411 38.5557 114.345 39.5723C115.278 40.5889 115.212 42.1704 114.195 43.1045C111.367 45.7032 105.463 51.1515 104.154 52.4395C102.902 53.6725 101.397 54.0506 100.026 53.8311C98.8041 53.6352 97.8449 52.9972 97.2783 52.4395L97.2188 52.3818L97.1641 52.3193L93.2344 47.8984C92.3173 46.8665 92.4108 45.2864 93.4424 44.3691C94.4744 43.4521 96.0555 43.5442 96.9727 44.5762L100.726 48.7998C102.247 47.3145 108.077 41.9359 110.812 39.4229ZM129.903 -22C116.363 -21.9999 108.867 -16.4309 104.772 -9.72656C101.096 -3.7058 100.032 3.46194 100.233 8.91504L104.322 8.87891C104.319 7.49989 104.364 5.94657 104.498 4.43164C104.614 3.1163 104.802 1.76877 105.101 0.5625C105.384 -0.579633 105.832 -1.8783 106.634 -2.86523C107.504 -3.93664 109.079 -4.09995 110.15 -3.22949C111.222 -2.35892 111.385 -0.784431 110.515 0.287109C110.419 0.405377 110.184 0.834583 109.953 1.76465C109.739 2.63057 109.582 3.70089 109.479 4.87207C109.36 6.20857 109.319 7.5975 109.321 8.83496L150.902 8.4668C150.478 1.66002 148.241 -3.24292 145.028 -6.51367C141.445 -10.161 136.383 -12.0517 130.465 -12.0518C120.813 -12.0517 116.086 -7.9238 115.135 -6.51855C114.361 -5.37573 112.806 -5.07605 111.663 -5.84961C110.52 -6.62367 110.22 -8.17901 110.994 -9.32227C113.036 -12.3382 119.462 -17.0517 130.465 -17.0518C137.456 -17.0517 143.9 -14.7976 148.596 -10.0176C152.863 -5.67321 155.467 0.532437 155.909 8.42188L160.615 8.38086C160.549 3.01234 159.219 -3.86126 155.484 -9.67871C151.154 -16.4238 143.447 -21.9999 129.903 -22Z" fill="#195E73"/>
</g>
<defs>
<clipPath id="clip0_2048_512">
<rect width="165" height="165" rx="10" fill="white"/>
</clipPath>
</defs>
</svg>
