<svg width="165" height="165" viewBox="0 0 165 165" fill="none" xmlns="http://www.w3.org/2000/svg">
<g clip-path="url(#clip0_2048_439)">
<rect width="165" height="165" rx="10" fill="#42A079"/>
<path d="M8.11443 320.655C-31.2032 298.31 -25.3841 243.072 -17.5599 218.246C-48.3658 174.249 -79.6882 235.95 -87.431 195.152C-95.1738 154.354 -65.5363 149.725 -30.7762 103.89C3.98399 58.0543 61.3717 55.4931 101.924 88.3667C142.477 121.24 104.182 162.027 67.0036 176.234C29.8257 190.442 93.034 214.977 92.4475 279.879C91.8611 344.782 57.2615 348.585 8.11443 320.655Z" fill="#287958" fill-opacity="0.5"/>
<path d="M-21 11.1421C-3.45793 8.21745 35.0097 7.95405 48.5436 30.2976C65.4611 58.227 73.4092 67.0631 91.2946 60.6514C109.18 54.2396 131.435 45.1993 135.085 31.6742C138.735 18.1491 128.291 3.83362 140.253 -5.76625C152.215 -15.3661 157.206 -32.5589 172.445 -30.0545" stroke="white" stroke-opacity="0.5" stroke-linecap="round" stroke-dasharray="6 6"/>
<path d="M120.5 63H85C83.8954 63 83 62.1046 83 61V49M120.5 63L116.84 74.388C116.425 75.679 117.388 77 118.744 77H137.849C139.177 77 140.137 75.7282 139.772 74.4506L136.5 63M120.5 63H136.5M136.5 63H173C174.105 63 175 62.1046 175 61V49M83 49V-3C83 -4.10457 83.8954 -5 85 -5H173C174.105 -5 175 -4.10457 175 -3V49M83 49H175" stroke="#236B4D" stroke-width="5" stroke-linecap="round"/>
<circle cx="129" cy="56" r="2.5" stroke="#236B4D" stroke-width="2"/>
</g>
<defs>
<clipPath id="clip0_2048_439">
<rect width="165" height="165" rx="10" fill="white"/>
</clipPath>
</defs>
</svg>
