<svg width="165" height="165" viewBox="0 0 165 165" fill="none" xmlns="http://www.w3.org/2000/svg">
<g clip-path="url(#clip0_2048_568)">
<rect width="165" height="165" rx="10" fill="#9060A0"/>
<path d="M-30.0347 68.4345L-6.28162 78.4029C0.719063 81.3409 8.6127 81.3101 15.5902 78.3175L59.4551 59.5044C76.6805 52.1166 81.925 30.2201 69.9155 15.8303L52.343 -5.22519C49.1341 -9.07018 44.9526 -11.9841 40.2344 -13.6633L-3.86351 -29.3578C-19.7376 -35.0074 -36.9698 -25.459 -40.5958 -9.00431L-49.4655 31.2459L-54.5686 45.691C-58.5078 56.8416 -49.5707 68.3224 -37.7945 67.2394C-35.1491 66.9961 -32.4844 67.4065 -30.0347 68.4345Z" fill="#784987"/>
<path d="M198.834 169.644L188.163 121.406C187.118 116.682 184.215 112.577 180.109 110.018L154.122 93.8216C147.578 89.7432 139.164 90.2857 133.198 95.1704L102.702 120.139C100.388 122.034 98.5828 124.475 97.449 127.243L88.2539 149.69C85.1572 157.25 87.54 165.948 94.0574 170.873L111.681 184.193C114.498 186.322 117.879 187.576 121.403 187.798L180.127 191.496C192.079 192.249 201.42 181.338 198.834 169.644Z" fill="#80548F"/>
<path d="M40.499 -8.5C76.499 41.5001 32.4986 22.5001 26.9986 41.5001C20.1862 65.0339 62.0004 41.5001 56.9986 69.5C53.6286 88.3651 115 63.5 91.9986 109C75.8495 140.945 115.703 120.704 125.999 131C135.499 140.5 121.832 171.333 121.999 184.5" stroke="#DDB8E9" stroke-dasharray="3 3"/>
<path d="M120.5 63H85C83.8954 63 83 62.1046 83 61V49M120.5 63L116.84 74.388C116.425 75.679 117.388 77 118.744 77H137.849C139.177 77 140.137 75.7282 139.772 74.4506L136.5 63M120.5 63H136.5M136.5 63H173C174.105 63 175 62.1046 175 61V49M83 49V-3C83 -4.10457 83.8954 -5 85 -5H173C174.105 -5 175 -4.10457 175 -3V49M83 49H175" stroke="#541E66" stroke-width="5" stroke-linecap="round"/>
<circle cx="129" cy="56" r="2.5" stroke="#541E66" stroke-width="2"/>
</g>
<defs>
<clipPath id="clip0_2048_568">
<rect width="165" height="165" rx="10" fill="white"/>
</clipPath>
</defs>
</svg>
