<svg width="165" height="165" viewBox="0 0 165 165" fill="none" xmlns="http://www.w3.org/2000/svg">
<g clip-path="url(#clip0_2048_502)">
<rect width="165" height="165" rx="10" fill="#498496"/>
<path d="M-18.5 118C-10.5 106.5 5 118 18 118C31 118 21 72.5 27.5 54.5C34 36.5 60 68.5 71.5 51.5C83 34.5 89.4749 10.9034 103 16.5C132 28.5 138.5 6 142.5 -5.5" stroke="#96CCDC" stroke-dasharray="3 3"/>
<path d="M48.9996 134C23.8029 151.134 22.9621 125.563 2.49995 141C-7.45894 143.665 4.20721 215.717 14.9161 231.785C28.3022 251.87 186.453 186.266 168.473 137.698C150.494 89.1305 84.6162 76.2093 57.9999 81.5C31.3836 86.7907 61.4995 125.5 48.9996 134Z" fill="#357285"/>
<path d="M120.5 63H85C83.8954 63 83 62.1046 83 61V49M120.5 63L116.84 74.388C116.425 75.679 117.388 77 118.744 77H137.849C139.177 77 140.137 75.7282 139.772 74.4506L136.5 63M120.5 63H136.5M136.5 63H173C174.105 63 175 62.1046 175 61V49M83 49V-3C83 -4.10457 83.8954 -5 85 -5H173C174.105 -5 175 -4.10457 175 -3V49M83 49H175" stroke="#195E73" stroke-width="5" stroke-linecap="round"/>
<circle cx="129" cy="56" r="2.5" stroke="#195E73" stroke-width="2"/>
</g>
<defs>
<clipPath id="clip0_2048_502">
<rect width="165" height="165" rx="10" fill="white"/>
</clipPath>
</defs>
</svg>
