<svg width="165" height="165" viewBox="0 0 165 165" fill="none" xmlns="http://www.w3.org/2000/svg">
<g clip-path="url(#clip0_2048_494)">
<rect width="165" height="165" rx="10" fill="#498496"/>
<path d="M-18.5 118C-10.5 106.5 5 118 18 118C31 118 21 72.5 27.5 54.5C34 36.5 60 68.5 71.5 51.5C83 34.5 89.4749 10.9034 103 16.5C132 28.5 138.5 6 142.5 -5.5" stroke="#96CCDC" stroke-dasharray="3 3"/>
<path d="M49 134C23.8034 151.134 22.9626 125.563 2.50044 141C-7.45845 143.665 4.2077 215.717 14.9166 231.785C28.3027 251.87 186.454 186.266 168.474 137.698C150.494 89.1305 84.6166 76.2093 58.0004 81.5C31.3841 86.7907 61.5 125.5 49 134Z" fill="#357285"/>
<path d="M166.437 63.3841C165.093 67.8522 141.611 72.3204 130.038 73.9959C128.695 74.1961 125.745 67.0048 124.439 63.3841C119.026 64.5012 107.826 62.8256 106.52 61.1501C103.384 57.1288 102.973 47.001 104.28 42.1606C101.853 41.0435 97 38.3626 97 36.5754C97 34.7882 101.853 24.2881 104.28 19.2614V14.2347C104.653 8.83569 108.199 -3.19102 119.399 -8.10597C133.398 -14.2496 143.478 -15.9252 158.597 -5.31339C173.716 5.29842 171.476 23.1709 169.797 27.6391C168.117 32.1072 163.077 40.4849 163.077 46.6286C163.077 52.7723 168.117 57.7989 166.437 63.3841Z" stroke="#195E73" stroke-width="5"/>
</g>
<defs>
<clipPath id="clip0_2048_494">
<rect width="165" height="165" rx="10" fill="white"/>
</clipPath>
</defs>
</svg>
