<svg width="165" height="165" viewBox="0 0 165 165" fill="none" xmlns="http://www.w3.org/2000/svg">
<g clip-path="url(#clip0_2048_431)">
<rect width="165" height="165" rx="10" fill="#42A079"/>
<path d="M8.11443 320.655C-31.2032 298.31 -25.3841 243.072 -17.5599 218.246C-48.3658 174.249 -79.6882 235.95 -87.431 195.152C-95.1738 154.354 -65.5363 149.725 -30.7762 103.89C3.98399 58.0543 61.3717 55.4931 101.924 88.3667C142.477 121.24 104.182 162.027 67.0036 176.234C29.8257 190.442 93.034 214.977 92.4475 279.879C91.8611 344.782 57.2615 348.585 8.11443 320.655Z" fill="#287958" fill-opacity="0.5"/>
<path d="M-21 11.1421C-3.45793 8.21745 35.0097 7.95405 48.5436 30.2976C65.4611 58.227 73.4092 67.0631 91.2946 60.6514C109.18 54.2396 131.435 45.1993 135.085 31.6742C138.735 18.1491 128.291 3.83362 140.253 -5.76625C152.215 -15.3661 157.206 -32.5589 172.445 -30.0545" stroke="white" stroke-opacity="0.5" stroke-linecap="round" stroke-dasharray="6 6"/>
<path d="M166.437 63.3841C165.093 67.8522 141.611 72.3204 130.038 73.9959C128.695 74.1961 125.745 67.0048 124.439 63.3841C119.026 64.5012 107.826 62.8256 106.52 61.1501C103.384 57.1288 102.973 47.001 104.28 42.1606C101.853 41.0435 97 38.3626 97 36.5754C97 34.7882 101.853 24.2881 104.28 19.2614V14.2347C104.653 8.83569 108.199 -3.19102 119.399 -8.10597C133.398 -14.2496 143.478 -15.9252 158.597 -5.31339C173.716 5.29842 171.476 23.1709 169.797 27.6391C168.117 32.1072 163.077 40.4849 163.077 46.6286C163.077 52.7723 168.117 57.7989 166.437 63.3841Z" stroke="#236B4D" stroke-width="5"/>
</g>
<defs>
<clipPath id="clip0_2048_431">
<rect width="165" height="165" rx="10" fill="white"/>
</clipPath>
</defs>
</svg>
