<svg width="165" height="165" viewBox="0 0 165 165" fill="none" xmlns="http://www.w3.org/2000/svg">
<g clip-path="url(#clip0_2048_559)">
<rect width="165" height="165" rx="10" fill="#9060A0"/>
<path d="M-30.0347 68.4345L-6.28162 78.4029C0.719063 81.3409 8.6127 81.3101 15.5902 78.3175L59.4551 59.5044C76.6805 52.1166 81.925 30.2201 69.9155 15.8303L52.343 -5.22519C49.1341 -9.07018 44.9526 -11.9841 40.2344 -13.6633L-3.86351 -29.3578C-19.7376 -35.0074 -36.9698 -25.459 -40.5958 -9.00431L-49.4655 31.2459L-54.5686 45.691C-58.5078 56.8416 -49.5707 68.3224 -37.7945 67.2394C-35.1491 66.9961 -32.4844 67.4065 -30.0347 68.4345Z" fill="#784987"/>
<path d="M198.834 169.644L188.163 121.406C187.118 116.682 184.215 112.577 180.109 110.018L154.122 93.8216C147.578 89.7432 139.164 90.2857 133.198 95.1704L102.702 120.139C100.388 122.034 98.5828 124.475 97.449 127.243L88.2539 149.69C85.1572 157.25 87.54 165.948 94.0574 170.873L111.681 184.193C114.498 186.322 117.879 187.576 121.403 187.798L180.127 191.496C192.079 192.249 201.42 181.338 198.834 169.644Z" fill="#80548F"/>
<path d="M40.4985 -8.5C76.4985 41.5001 32.4981 22.5001 26.9981 41.5001C20.1857 65.0339 61.9999 41.5001 56.9981 69.5C53.6281 88.3651 115 63.5 91.9981 109C75.849 140.945 115.703 120.704 125.998 131C135.498 140.5 121.831 171.333 121.998 184.5" stroke="#DDB8E9" stroke-dasharray="3 3"/>
<path d="M166.437 63.3841C165.093 67.8522 141.611 72.3204 130.038 73.9959C128.695 74.1961 125.745 67.0048 124.439 63.3841C119.026 64.5012 107.826 62.8256 106.52 61.1501C103.384 57.1288 102.973 47.001 104.28 42.1606C101.853 41.0435 97 38.3626 97 36.5754C97 34.7882 101.853 24.2881 104.28 19.2614V14.2347C104.653 8.83569 108.199 -3.19102 119.399 -8.10597C133.398 -14.2496 143.478 -15.9252 158.597 -5.31339C173.716 5.29842 171.476 23.1709 169.797 27.6391C168.117 32.1072 163.077 40.4849 163.077 46.6286C163.077 52.7723 168.117 57.7989 166.437 63.3841Z" stroke="#541E66" stroke-width="5"/>
</g>
<defs>
<clipPath id="clip0_2048_559">
<rect width="165" height="165" rx="10" fill="white"/>
</clipPath>
</defs>
</svg>
