<svg width="16" height="17" viewBox="0 0 16 17" fill="none" xmlns="http://www.w3.org/2000/svg">
<g clip-path="url(#clip0_1896_20860)">
<path d="M11.3342 1.10303L9.82166 2.61553L13.8842 6.67803L15.3967 5.16553C16.1779 4.38428 16.1779 3.11865 15.3967 2.3374L14.1654 1.10303C13.3842 0.321777 12.1185 0.321777 11.3373 1.10303H11.3342ZM9.11541 3.32178L1.83103 10.6093C1.50603 10.9343 1.26853 11.3374 1.13728 11.778L0.0310334 15.5374C-0.0470916 15.803 0.0247834 16.0874 0.218533 16.2812C0.412283 16.4749 0.696658 16.5468 0.959158 16.4718L4.71853 15.3655C5.15916 15.2343 5.56228 14.9968 5.88728 14.6718L13.1779 7.38428L9.11541 3.32178Z" fill="black"/>
</g>
<defs>
<clipPath id="clip0_1896_20860">
<rect width="16" height="16" fill="white" transform="translate(0 0.5)"/>
</clipPath>
</defs>
</svg>
