<svg width="16" height="18" viewBox="0 0 16 18" fill="none" xmlns="http://www.w3.org/2000/svg">
<g clip-path="url(#clip0_1951_1668)">
<path d="M7.81838 8.93302C8.942 8.93302 10.0196 8.48666 10.8141 7.69214C11.6086 6.89762 12.055 5.82002 12.055 4.6964C12.055 3.57278 11.6086 2.49518 10.8141 1.70066C10.0196 0.906135 8.942 0.459778 7.81838 0.459778C6.69476 0.459778 5.61716 0.906135 4.82264 1.70066C4.02812 2.49518 3.58176 3.57278 3.58176 4.6964C3.58176 5.82002 4.02812 6.89762 4.82264 7.69214C5.61716 8.48666 6.69476 8.93302 7.81838 8.93302ZM6.30578 10.5218C3.04557 10.5218 0.404297 13.163 0.404297 16.4232C0.404297 16.966 0.844508 17.4063 1.38733 17.4063H14.2494C14.7923 17.4063 15.2325 16.966 15.2325 16.4232C15.2325 13.163 12.5912 10.5218 9.33099 10.5218H6.30578Z" fill="#374466"/>
</g>
<defs>
<clipPath id="clip0_1951_1668">
<rect width="14.8282" height="16.9465" fill="white" transform="translate(0.404297 0.459778)"/>
</clipPath>
</defs>
</svg>
