<svg width="16" height="16" viewBox="0 0 16 16" fill="none" xmlns="http://www.w3.org/2000/svg">
<path d="M12.7062 4.70627C13.0968 4.31565 13.0968 3.68127 12.7062 3.29065C12.3155 2.90002 11.6812 2.90002 11.2905 3.29065L7.9999 6.5844L4.70615 3.29377C4.31553 2.90315 3.68115 2.90315 3.29053 3.29377C2.8999 3.6844 2.8999 4.31877 3.29053 4.7094L6.58428 8.00002L3.29365 11.2938C2.90303 11.6844 2.90303 12.3188 3.29365 12.7094C3.68428 13.1 4.31865 13.1 4.70928 12.7094L7.9999 9.41565L11.2937 12.7063C11.6843 13.0969 12.3187 13.0969 12.7093 12.7063C13.0999 12.3156 13.0999 11.6813 12.7093 11.2906L9.41553 8.00002L12.7062 4.70627Z" fill="#1E1E1E"/>
</svg>
